<svg width="64" height="64" viewBox="0 0 64 64" fill="none" xmlns="http://www.w3.org/2000/svg">
<g clip-path="url(#clip0)">
<path d="M62.4988 22H55.015L52.935 16.8C50.7975 11.4537 45.6963 8 39.9375 8H24.0625C18.305 8 13.2025 11.4537 11.0638 16.8L8.98376 22H1.50125C0.525003 22 -0.191247 22.9175 0.0462532 23.8638L0.796254 26.8638C0.962504 27.5312 1.5625 28 2.25125 28H4.76001C3.08125 29.4662 2 31.5975 2 34V40C2 42.015 2.77 43.8337 4.00001 45.2412V52C4.00001 54.2088 5.79126 56 8.00001 56H12C14.2088 56 16 54.2088 16 52V48H48V52C48 54.2088 49.7913 56 52 56H56C58.2088 56 60 54.2088 60 52V45.2412C61.23 43.835 62 42.0163 62 40V34C62 31.5975 60.9188 29.4662 59.2413 28H61.75C62.4388 28 63.0388 27.5312 63.205 26.8638L63.955 23.8638C64.1913 22.9175 63.475 22 62.4988 22ZM18.4913 19.7712C19.4025 17.4937 21.6088 16 24.0625 16H39.9375C42.3913 16 44.5975 17.4937 45.5088 19.7712L48 26H16L18.4913 19.7712ZM12 39.975C9.60001 39.975 8.00001 38.38 8.00001 35.9875C8.00001 33.595 9.60001 32 12 32C14.4 32 18 35.5888 18 37.9813C18 40.3737 14.4 39.975 12 39.975ZM52 39.975C49.6 39.975 46 40.3737 46 37.9813C46 35.5888 49.6 32 52 32C54.4 32 56 33.595 56 35.9875C56 38.38 54.4 39.975 52 39.975Z" fill="white"/>
</g>
<defs>
<clipPath id="clip0">
<rect width="64" height="64" fill="white"/>
</clipPath>
</defs>
</svg>
