<svg width="37" height="46" viewBox="0 0 37 46" fill="none" xmlns="http://www.w3.org/2000/svg">
<g clip-path="url(#clip0)">
<path d="M18.4911 1.36533C18.5623 1.78759 19.9231 9.85556 19.9231 12.9372C19.9231 17.636 17.4505 20.9872 13.795 22.3349L14.9423 43.7267C15.0046 44.9575 14.0351 45.9997 12.8077 45.9997H7.11538C5.89687 45.9997 4.91851 44.9665 4.98077 43.7267L6.12812 22.3349C2.4637 20.9872 0 17.627 0 12.9372C0 9.84658 1.36082 1.78759 1.43197 1.36533C1.71659 -0.458502 5.46106 -0.485455 5.69231 1.46415V14.1501C5.80793 14.4556 7.03534 14.4376 7.11538 14.1501C7.2399 11.877 7.81803 1.64384 7.82692 1.41025C8.12043 -0.458502 11.8026 -0.458502 12.0873 1.41025C12.105 1.65283 12.6743 11.877 12.7988 14.1501C12.8788 14.4376 14.1151 14.4556 14.2219 14.1501V1.46415C14.4531 -0.476471 18.2065 -0.458502 18.4911 1.36533ZM29.093 27.0337L27.7589 43.6638C27.6522 44.9216 28.6394 45.9997 29.8846 45.9997H34.8654C36.0483 45.9997 37 45.0384 37 43.8435V2.15595C37 0.970013 36.0483 -0.000298821 34.8654 -0.000298821C27.5276 -0.000298821 15.1736 16.0368 29.093 27.0337Z" fill="#026E78"/>
</g>
<defs>
<clipPath id="clip0">
<rect width="37" height="46" fill="white"/>
</clipPath>
</defs>
</svg>
